<svg width="120" height="30" viewBox="0 0 120 30" fill="none" xmlns="http://www.w3.org/2000/svg">
  <path fill-rule="evenodd" clip-rule="evenodd" d="M15 0C23.2843 0 30 6.71573 30 15C30 23.2843 23.2843 30 15 30C6.71573 30 0 23.2843 0 15C0 6.71573 6.71573 0 15 0ZM15 4C8.92487 4 4 8.92487 4 15C4 21.0751 8.92487 26 15 26C21.0751 26 26 21.0751 26 15C26 8.92487 21.0751 4 15 4Z" fill="#0073AA"/>
  <path d="M18 8C18 9.65685 16.6569 11 15 11C13.3431 11 12 9.65685 12 8C12 6.34315 13.3431 5 15 5C16.6569 5 18 6.34315 18 8Z" fill="#0073AA"/>
  <path d="M22 13C22 14.1046 21.1046 15 20 15C18.8954 15 18 14.1046 18 13C18 11.8954 18.8954 11 20 11C21.1046 11 22 11.8954 22 13Z" fill="#0073AA"/>
  <path d="M12 13C12 14.1046 11.1046 15 10 15C8.89543 15 8 14.1046 8 13C8 11.8954 8.89543 11 10 11C11.1046 11 12 11.8954 12 13Z" fill="#0073AA"/>
  <path d="M18 20C18 21.1046 16.6569 22 15 22C13.3431 22 12 21.1046 12 20C12 18.8954 13.3431 18 15 18C16.6569 18 18 18.8954 18 20Z" fill="#0073AA"/>
  <path d="M40 8.5V21.5H43V8.5H40Z" fill="#333333"/>
  <path d="M46 8.5V21.5H49V17H53.5C56.5376 17 59 14.5376 59 11.5C59 8.46243 56.5376 6 53.5 6H46V8.5ZM49 8.5H53.5C55.157 8.5 56.5 9.84315 56.5 11.5C56.5 13.1569 55.157 14.5 53.5 14.5H49V8.5Z" fill="#333333"/>
  <path d="M61 8.5V21.5H64V17H68.5C71.5376 17 74 14.5376 74 11.5C74 8.46243 71.5376 6 68.5 6H61V8.5ZM64 8.5H68.5C70.157 8.5 71.5 9.84315 71.5 11.5C71.5 13.1569 70.157 14.5 68.5 14.5H64V8.5Z" fill="#333333"/>
  <path d="M76 14C76 18.4183 79.5817 22 84 22C88.4183 22 92 18.4183 92 14C92 9.58172 88.4183 6 84 6C79.5817 6 76 9.58172 76 14ZM79 14C79 11.2386 81.2386 9 84 9C86.7614 9 89 11.2386 89 14C89 16.7614 86.7614 19 84 19C81.2386 19 79 16.7614 79 14Z" fill="#333333"/>
  <path d="M94 8.5V21.5H97V17H100.343L103.7 21.5H107.25L103.408 16.3962C105.085 15.4913 106.2 13.7394 106.2 11.75C106.2 8.8505 103.85 6.5 100.95 6.5H94V8.5ZM97 8.5H100.95C102.197 8.5 103.2 9.50294 103.2 10.75C103.2 11.9971 102.197 13 100.95 13H97V8.5Z" fill="#333333"/>
  <path d="M109 8.5V21.5H120V19H112V8.5H109Z" fill="#333333"/>
</svg> 